<svg xmlns="http://www.w3.org/2000/svg" viewBox="0 0 64 64" width="64" height="64">
  <defs>
    <linearGradient id="grad" x1="0%" y1="0%" x2="100%" y2="100%">
      <stop offset="0%" stop-color="#3B82F6"/>
      <stop offset="100%" stop-color="#06B6D4"/>
    </linearGradient>
    <filter id="glow" x="-20%" y="-20%" width="140%" height="140%">
      <feDropShadow dx="0" dy="0" stdDeviation="3" flood-color="#06B6D4" flood-opacity="0.6"/>
    </filter>
  </defs>
  <rect width="64" height="64" rx="14" fill="#0B1120"/>
  <path d="M32 10 L48 18 V32 C48 43 41 51 32 55 C23 51 16 43 16 32 V18 Z" fill="url(#grad)" filter="url(#glow)"/>
  <path d="M32 14 L44 20 V32 C44 41 38 47.5 32 51 C26 47.5 20 41 20 32 V20 Z" fill="#111827"/>
  <circle cx="32" cy="31" r="5" fill="#06B6D4"/>
  <path d="M32 23 V26 M32 36 V39 M24 31 H27 M37 31 H40" stroke="#3B82F6" stroke-width="2" stroke-linecap="round"/>
</svg>